<svg xmlns="http://www.w3.org/2000/svg" viewBox="0 0 88.45 41.92"><defs><style>.cls-1{fill:#fff;}</style></defs><title>Asset 90</title><g id="Layer_2" data-name="Layer 2"><g id="Layer_1-2" data-name="Layer 1"><path class="cls-1" d="M63.31,23.7c.19,0,.36.09.29.14.4-.13.41,0,.46-.25.25-.13.53.06.24.17l.73-.17-.44,0c.12-.23.71.07.85-.19h-.8l0-.07a1.35,1.35,0,0,1-.66,0s0-.1.15-.1c-1,0-.26.39-1.06.46A.56.56,0,0,1,63.31,23.7Z"/><path class="cls-1" d="M62.49,23.13l-.34.29-.56-.08c0,.1-.42.18-.14.26a.85.85,0,0,1,.25,0c-.07.21-.75.1-.59.32.45-.06.52,0,.79-.18a2.84,2.84,0,0,1,.9.15c.12,0,.14-.16.29-.19H63l0-.32a.74.74,0,0,1-.39,0l.66-.37c-.21-.3-.86-.13-1.12-.25C62.44,23.05,61.87,22.91,62.49,23.13Z"/><path class="cls-1" d="M63.09,23.67h0Z"/><path class="cls-1" d="M13.85,26.59a.21.21,0,0,0-.2.13l1.58-.12c-.06-.08-.52-.15-.22-.22a.66.66,0,0,0-.6.14l.11-.13c-.35.19-.62-.12-.39-.23h0l-1,.7C13.5,26.88,13.4,26.63,13.85,26.59Z"/><path class="cls-1" d="M.58,2.47c.07.21.1.23.13.2A1.37,1.37,0,0,0,.58,2.47Z"/><path class="cls-1" d="M12.91,27l-.3.22A1.17,1.17,0,0,0,12.91,27Z"/><path class="cls-1" d="M14.92,23.87a0,0,0,0,0,0,0l-.13.11h0Z"/><path class="cls-1" d="M5.85,28.39l-.16,0Z"/><path class="cls-1" d="M19.16,22.47l-.7.23c.09-.1-.25-.05-.11-.16-.05,0-.3.07-.23.11l.15,0c-.36.29-.13.38-.74.61a.69.69,0,0,0,.75-.15l.18-.05.57-.4Z"/><path class="cls-1" d="M3.33,13.05h0S3.33,13,3.33,13.05Z"/><path class="cls-1" d="M3.42,13.08l-.07,0S3.43,13.25,3.42,13.08Z"/><path class="cls-1" d="M13,26.85a.33.33,0,0,1-.1.18l.22-.17Z"/><path class="cls-1" d="M13.51,26.24l.59-.08.21-.15C14.09,26.08,13.83,26.13,13.51,26.24Z"/><path class="cls-1" d="M6.78,28.46c-1.21.15.28-.34-.29-.36-.33.07-.44.23-.64.29,1-.21-.1.5.87.33a.59.59,0,0,1-.43.27A1.45,1.45,0,0,1,6,29H5.56c-.35-.1-.19-.16.06-.23l.2-.06.12-.05a.29.29,0,0,0,.14-.15l-.21.05-.17.06c-.09,0-.13.09-.28.18-.56,0-1.13.14-1.64.13a1.4,1.4,0,0,1-1.12-.42,5.91,5.91,0,0,0-.66-.2,2,2,0,0,1-.47-.14c-.12.08.08.31.35.52a5.28,5.28,0,0,1,.72.52c-.05,0-.14-.12-.09-.14a5,5,0,0,0,.64.26c-.6-.27.19-.22.54-.21s.77,0,.69.09l-.42,0a2.08,2.08,0,0,0,.85,0,2.42,2.42,0,0,1,.88-.08c0,.06-.18.11-.22.15l.24-.09.2-.06a1.14,1.14,0,0,1,.26-.09l.6-.19-.25.29A2.6,2.6,0,0,1,8.37,29c-.07,0-.19-.06-.12-.12.35-.1.63.06.48.22.33-.26,1.33.08,1.79-.25l2.09-1.56a.8.8,0,0,1-.26.09c-.21-.22-.32-.18,0-.43-.34.15-.19.33-.71.38.2-.13.23-.41-.26-.4a29.93,29.93,0,0,0-3.11,1.53c0-.18-.95,0-1.39,0A1.36,1.36,0,0,1,7.71,28l-.85,0Z"/><path class="cls-1" d="M9.59,27.58l-.1,0A.22.22,0,0,0,9.59,27.58Z"/><path class="cls-1" d="M7.81,28s0,0,0,0l-.11,0Z"/><path class="cls-1" d="M12.7,26.46l.19-.14a.67.67,0,0,1-.15.06C12.69,26.41,12.67,26.44,12.7,26.46Z"/><path class="cls-1" d="M13,26.76l0,.08H13A.07.07,0,0,0,13,26.76Z"/><path class="cls-1" d="M2.17,25.37l0-.13C2.13,25.33,2.15,25.36,2.17,25.37Z"/><path class="cls-1" d="M5.16,28.3c.34,0,.36-.11.41-.18A.66.66,0,0,1,6,27.94H5.86a7.92,7.92,0,0,1,1.68-.23c0,.11.32.1.28.27a1.62,1.62,0,0,0,.85-.33c.22,0,.54-.14.82-.09-.13-.1.37-.38-.3-.2.06,0,0,0,.07-.06-.44-.11-.59.15-1,.19s.35-.2.14-.22c-.46.14-1.47,0-1.41.39a.51.51,0,0,1-.49-.08,1,1,0,0,1-.53.21l-.16,0h-.2l-.49,0c-.62,0-1.11,0-1.19.23a3.48,3.48,0,0,0,1.21-.14Z"/><path class="cls-1" d="M12,26.54s-.06,0-.08,0Z"/><path class="cls-1" d="M17.42,27.67l-.16.35c-1,.14-1.37.07-2.25.15-.07,0,0-.08.09-.1a10.08,10.08,0,0,0-2,.27c-.2,0-.72-.06-.53-.18a.79.79,0,0,1-.31.08c0-.12.24-.06.24-.16s-.12,0-.14,0c.14-.12-.18-.4.51-.45.28.27-.47.07-.3.37.23,0,.2-.13.21-.17.29,0,.29.07.28.14.11-.11.48,0,.62-.16.57-.06,0,.24.35.21l.2-.33.61,0c.88-.18-.15-.54.85-.8-.12.18.3.43.77.46a4.06,4.06,0,0,1-1.16.21c.53.21-.7.08-.42.35a1.66,1.66,0,0,1,1-.16l-.11,0c.36,0,.61-.34,1.1-.24.24,0,.2.07.16.14C17.24,27.67,17.42,27.6,17.42,27.67Zm-.52.1h-.32A.57.57,0,0,0,16.9,27.77Z"/><path class="cls-1" d="M58,23.15l.1,0A.15.15,0,0,0,58,23.15Z"/><path class="cls-1" d="M29.12,23.32h.19A.6.6,0,0,0,29.12,23.32Z"/><path class="cls-1" d="M33.32,22.15l.28-.08A.54.54,0,0,0,33.32,22.15Z"/><path class="cls-1" d="M55.71,23.12h0Z"/><path class="cls-1" d="M41.82,22.75l.15.07S41.9,22.76,41.82,22.75Z"/><path class="cls-1" d="M33.27,22.16h0l0,0Z"/><path class="cls-1" d="M27.23,22.45l-.12,0A.28.28,0,0,0,27.23,22.45Z"/><path class="cls-1" d="M27.52,23.34l-.11,0Z"/><path class="cls-1" d="M21,23l-.25.06A.56.56,0,0,0,21,23Z"/><path class="cls-1" d="M26.84,23.16l0,.05S26.86,23.18,26.84,23.16Z"/><path class="cls-1" d="M59.56,24.11h0v0Z"/><path class="cls-1" d="M60.17,23.65l.23,0A.75.75,0,0,0,60.17,23.65Z"/><path class="cls-1" d="M45.5,23.23c.07.05.22.1.15.15C45.78,23.32,45.77,23.16,45.5,23.23Z"/><path class="cls-1" d="M58.32,26.09a.71.71,0,0,1,.14-.1C58.36,26,58.28,26.07,58.32,26.09Z"/><path class="cls-1" d="M58.46,26l.13-.08Z"/><path class="cls-1" d="M43.81,25.88l-.08,0S43.77,25.89,43.81,25.88Z"/><path class="cls-1" d="M60.58,23.67c0-.07,1-.23.19-.28,0-.23.52-.1.74-.16-.16-.06.08-.15,0-.24a.93.93,0,0,1-.41.08c-.08-.11.19-.18.4-.14-.26-.12.33-.18,0-.28a4.12,4.12,0,0,0-1.89.5,3.86,3.86,0,0,1,1.31,0l-.15.2c-.42-.18-.67,0-1.08-.07l.91.12c.43.17.14.21-.19.24A.28.28,0,0,1,60.58,23.67Z"/><path class="cls-1" d="M60,25.46h0s0,0,0,0Z"/><path class="cls-1" d="M21.2,27.14l-.07.08C21.19,27.18,21.21,27.16,21.2,27.14Z"/><path class="cls-1" d="M59.41,24.47Z"/><path class="cls-1" d="M23.15,27.06s0,0,0,0S23.15,27.07,23.15,27.06Z"/><path class="cls-1" d="M23.51,22.63a0,0,0,0,0,0,0S23.48,22.63,23.51,22.63Z"/><path class="cls-1" d="M23.15,27v0S23.16,27.05,23.15,27Z"/><path class="cls-1" d="M32.62,26l-.08-.06S32.54,25.93,32.62,26Z"/><path class="cls-1" d="M30.74,25.7l0,0Z"/><path class="cls-1" d="M45.05,22.31l-.22,0A.86.86,0,0,0,45.05,22.31Z"/><path class="cls-1" d="M23.14,27.08l-.09.07A.25.25,0,0,0,23.14,27.08Z"/><path class="cls-1" d="M35.46,24.85l-.06,0h0Z"/><path class="cls-1" d="M36.44,25s0,.05-.06.07c.35-.09,1,0,1.06-.23-.12,0-.73-.11-.63-.24-.24.06-.61-.09-.74-.05.4.11,0,.18-.22.26s0-.18-.17-.21l-.57,0,.5,0-.15.21,0,0C36.35,24.72,35.59,25.14,36.44,25Z"/><path class="cls-1" d="M36.38,25.06a.46.46,0,0,0-.14.05A.21.21,0,0,0,36.38,25.06Z"/><path class="cls-1" d="M39.8,25.35l.15,0Z"/><path class="cls-1" d="M14.73,26c0,.06.51.15.5,0l-.44,0Z"/><path class="cls-1" d="M49.13,24.35H49l0,0S49.07,24.36,49.13,24.35Z"/><path class="cls-1" d="M37,24.51c-.09,0-.13,0-.15.08A.28.28,0,0,0,37,24.51Z"/><path class="cls-1" d="M49.16,24.73c.07,0,.17.11.19.18s.24-.09.38-.12A1.18,1.18,0,0,1,49.16,24.73Z"/><path class="cls-1" d="M49.74,24.79h0Z"/><path class="cls-1" d="M14.44,26l-.13,0,.07-.05-.34,0-.14,0a.07.07,0,0,0,0,0h-.11c-.26.18-.91.35-1.1.46a2.6,2.6,0,0,1-.75.16c.18,0,.42-.06.34-.15-.37-.06-.57-.33-1.18,0l.37,0-.81.42c-.31-.12.4-.21.51-.35-.64.23-1.21-.19-1.49.14a.47.47,0,0,0-.57-.42c.32.18-.24.15,0,.35-.14.12-.48,0-.49.12l0-.08c-.74-.22-1,.25-1.24.43A6.69,6.69,0,0,1,6.43,27l-.44,0-.54.05c0-.12-.25-.44-.55-.4a1.45,1.45,0,0,1-.54.24,1.35,1.35,0,0,0-.54.2c.57.15.55-.14.91-.2.26.21,0,.23.4.33-.18,0-.58,0-1,0a1.32,1.32,0,0,1-.9-.27l.14,0A1.18,1.18,0,0,1,3,26.51a4.9,4.9,0,0,0-.57-.75,2.56,2.56,0,0,1-.22-.39h.06a2,2,0,0,1,.06-.73,1.55,1.55,0,0,0,0-.72c0,.06,0,0,0,.08a1.55,1.55,0,0,0,0-.71c0-.22-.09-.46-.1-.62.16-.2.15,0,.26.19a4.81,4.81,0,0,0-.35-2.13l.1-.5c.06.3.23.67.32.58,0-.28-.1-.22-.07-.62a1.49,1.49,0,0,1,.32.43c.19-.82-.35-.19,0-.76a.42.42,0,0,0-.27-.43L2.66,19c-.15,0-.16-.62-.19-1-.07,0-.16.31-.1.45-.13,0-.19-.43-.19-.68.33-.1-.09-1.67.3-1.38-.15-1.14-.26-2.75-.46-3.49.07-.26,0-.77.21-.48-.07-.92-.45-1.35-.46-2.27,0-.08.05.41.16.36-.2-.58,0-1.1-.18-2a.26.26,0,0,0,.14.21s-.16-.37-.25-.6.07.18.1.1C1.67,6.37,1,5.1.72,3.36c.08.49.33.64.42.62l-.09-.49a5.23,5.23,0,0,1-.34-.82s0-.21.12-.06C.86,1.58.15,1.2,0,0L.73,1.31.81.92l.32.58C1.18,1.09.83.83,1,.74c.07.07.09.27.18.25C1.15.61,1,.62.93.35a9.71,9.71,0,0,1,1,2.8c.05.11-.09-.09-.13-.1a5.57,5.57,0,0,0,.13.9c.18.22.06-.21,0-.4.13,0,.14.1.2.31-.15.08.14,1.2,0,1.52.23,1.15.39-.27.49.88l-.14.38A7.83,7.83,0,0,1,3,8.87l0-.16c-.1-.09-.12.09-.16.17,0,.58.27,1.06.12,1.43a15.37,15.37,0,0,1,.66,2.43c-.23.22-.28-1-.47-1.25l.06.68a1.37,1.37,0,0,0-.31-.81c0,.6.24.77.35,1.33-.07,0-.11,0-.09.3l.17.06s0,0,0,.11c.06.33.11.67.16,1,.06-.22.2-.24.19-.5-.09.1-.12-.12-.14-.38.13.22.07-.26.16-.26,0,.52.09,1.16.16,1.5l-.15.12c0,.5.09,1,.07,1.36l-.09-.1a8,8,0,0,1-.05,1.71c.19.53.34,1.2.52,1.64.2.23-.26,1.56,0,2.17a4.45,4.45,0,0,1-.21-.62c0,.4.2.72,0,.84.09-.9-.17,0-.21-.36a4,4,0,0,0,.08,1.07c0-.68.28.25.21-.44a4.21,4.21,0,0,1,.15.92,2,2,0,0,1,0,.6c-.09,0-.14.07-.18.23l.12.07c0,.2-.13-.31-.2.09.11.14.05.37.09.6s.21.35.43.17c0,.14-.1.13-.21.11S4,24.65,4,24.89c-.15,0-.22-.14-.25-.26s0-.21-.16-.19c.09.21-.17.21-.14.39a.81.81,0,0,0,.24.17l0-.06a2.1,2.1,0,0,0,1.58.28A1.82,1.82,0,0,0,5.54,25,5,5,0,0,1,6,24.79a3.11,3.11,0,0,1,1.09-.28c-.25.16.73.06.2.36.41.08.79-.1.79-.2a2.39,2.39,0,0,1-.42,0,1.27,1.27,0,0,1,.85-.12c-.09,0,0,0-.07.06.43,0,.19-.14.49-.21.11.16.68,0,1,.05l.39-.27c-.21.17.39,0,.47.16a1.85,1.85,0,0,1,1-.34c-.17.1.41.08.43.24.77.1,1.23-.52,2-.35,0,0-.16.16.05.18a6,6,0,0,1,.63-.08h0c.08,0,.14,0,.14-.08a3,3,0,0,1,1-.52c-.06-.18-.56-.08-.77,0l-.18.19c-.19-.26-.53.09-.67,0,.33-.35,1.37-.34,2-.58a3.74,3.74,0,0,0-1.92-.13l.32.09-.37,0,.37.17c-.36,0-.66.06-1,.07.38,0,.54.21.32.19-.43-.15-.43.14-.75.16.18,0,.41,0,.27.1-.64-.17-.8,0-1.39-.21.09.3-.71.09-.78.35h.27l-.55.23c-.54-.21.44-.29-.36-.4s-.69.35-1.26.42a1.74,1.74,0,0,1,1.08-.42l-.28-.07a3,3,0,0,1,1.1-.16c-.52.25.25,0,.5.18,0-.17-.3-.12.09-.29a4.42,4.42,0,0,1-.91,0c1,0,.89-.68,1.8-.6-.41.11.16.24.21.32a5.51,5.51,0,0,0,.75-.16l-.16-.24c.51-.14.73.38,1.32.08.07-.16-.54,0-.43-.06.82-.21,1.14.17,1.88.31a.58.58,0,0,1,.28-.38c-.08.15.12.22-.17.35a1.58,1.58,0,0,0,.75-.15c-.51-.06.2-.23.29-.33.27,0-.07.16-.23.21.21,0,.47.24.58,0,0,.16-.57.46-1,.52h.27c-.18.1-.22.07-.48.07.26.1.24.24.19.36s0,0,0-.06c-.21,0-.37,0-.32.11-.18.22.3.11.45.21l.32-.06L18.46,23a2,2,0,0,1,1.05.13l.08-.19c.42,0,.81,0,.55.28,0-.06-.07,0-.16-.05a.1.1,0,0,1-.05.06l0,0,.73-.14c-.73.3,0,.33-.13.67l.75-.15c-.46-.08,0-.16.14-.21.05.18.61,0,.87,0l0,0a3,3,0,0,0,1-.05c0-.06.36-.38.55-.57-.53-.05-.22-.14-.27-.25s.15,0,.16,0-.1-.06-.12-.12c-.55.11-1.12.16-1.34.43.18.11.29-.12.48-.06a2,2,0,0,1-1.09.19l-.15-.14L21,23c.19-.09.07-.24.56-.3-.07-.14-.48.06-.79,0l-.14.22c.05-.12-.59-.11-.14-.29l.73-.2L21,22.33l.63-.07-.15.11c1-.19.32.39,1.32.1a1.61,1.61,0,0,1,1.27-.27c-.45.07,0,.17-.21.32.47.09.61-.12.85-.23.12.13.2.23-.21.23,0,.28.54-.07.59.21,1.35-.06,1.05-1,2.65-.66l-.06.11c1-.17,1.59-.05,2.51-.17l.74.26c-.16.05-.59.28-.39.42-.36-.29-.73-.17-1.12-.32,0,.08.12.13.19.18-.23,0-.35-.13-.66-.07,0,.06.35.13.1.17l-.42-.17c-.55.11-.26.44-.92.38a1.19,1.19,0,0,1,.61-.45c-.29,0,.4-.11.13-.2-.43.25-.64.07-1.21.24.07,0,.08-.08.22-.1l-.83-.07c.21.13-.68.18-.6.38.89.06.63-.06,1.64,0a1.62,1.62,0,0,0-.82.48s0,0-.05,0c-.15.21,0,.25,0,.61.45-.27.76-.07,1.3-.24.1-.2-.32-.24-.59-.18L28,23.2l-.1.09,1.22,0a.65.65,0,0,0-.42.22,1.79,1.79,0,0,1,.48.1c0-.18,0-.32.13-.32a2.69,2.69,0,0,1,1.51.38l.09,0c-.14-.18.55-.36.78-.56,0,.2.41.11.63.21.12-.23,0-.54-.32-.72-.53.22-.3.21-.54.51l-.84.23.18-.19c-.42-.07-.82.19-.79-.05.21-.17.59-.08.8-.25l-.28-.07c.49-.25.26.21.85,0-.22-.19.06,0,.31-.16-.21-.13-1.05.09-.88-.25.31-.17,1.06.37,1.46,0l0,0a1.47,1.47,0,0,0,1-.3c.26.1.61-.06.89-.08v.1l.39-.05c-.18.18-.46,0-.8,0l0,.18c-.4-.21-.65.13-1,.3.44-.17,1.24,0,1.34-.35l.28.18.13-.07c.2.13,0,.36-.39.41-.07,0-.11-.07-.09-.11a1.14,1.14,0,0,1-.79.2l.24-.1a2,2,0,0,0-1.24.27,22.82,22.82,0,0,0,2.33,0,5.78,5.78,0,0,0,.57-1.05,4,4,0,0,1,1.62,0l0,.07a1.33,1.33,0,0,0,.57,0c.23.1-.15.2,0,.26l.71-.15c0,.18-.64.19-.93.21.06,0,.16-.05.13-.07-.34-.07-1,.24-1.1,0-.16.05.33-.19-.23-.19a.41.41,0,0,0-.52.21c0,.1.58.13.38.25.29,0,.4-.15.77-.06-.29,0-.67.23-.82.08-.56.19-.47.66-.21.68-.06-.15,1-.2.28-.38a8.1,8.1,0,0,1,1.37-.33l0,0,.54-.06c-.08.06-.24.1-.25.2l.75-.28c-.42.19.26.12.45.2.08-.15.37-.27.09-.35s-.19.08-.47.1l.4-.25,0,0L39,22c.55,0-.24.45.46.25L39.38,22a14.19,14.19,0,0,0,2.44.19.33.33,0,0,0,0,.54,5.12,5.12,0,0,0-1.11,0c-.07-.05.44-.32.83-.27-.19-.43-1,.28-1-.17-1-.14-.73.44-1.57.19,0,.2-.24.1-.28.28.25.31,1.12,0,1.66.08,0,0-.16,0-.18.08a1.63,1.63,0,0,0,.82-.07l0,0c.47-.2.29.14.57.23.11,0,.5,0,.44-.13l.5.19,0-.23c.28,0,.34.13.6,0v-.2l-.71-.06c.36-.07.1-.19.5-.24-.44.22.31.11.35.29l.29-.11-.07.05c.23.1.27-.07.54-.05a1.16,1.16,0,0,0-.92-.1,5.76,5.76,0,0,1,1-.25c.31-.08.52.07.81.09-.55.08.19.59-.91.46,0,0,.11,0,.15,0-.15-.25-.66,0-.9.12.07.15-.18.18.24.26-.14-.09.35-.33.75-.21l-.06.31.58,0h0c.22.2.62,0,1,.07.29-.11,1.41,0,.93-.35.36.19.67-.06,1.07-.1l-.49-.12c.58-.23.41-.08.87-.44,0,.09.15.15.06.24a6.37,6.37,0,0,0,2.35-.15c.55,0,.64.38,1.41.24.16-.05-.13-.29.38-.2,0,0-.49.23.08.2.41-.24.95.14,1.48-.07.28.08.76.05.66.24a2.77,2.77,0,0,0-1.16.09c.06-.12-.31-.11,0-.2-.66-.14-.43.12-1,0,0,.07.31.21.44.14,0,.26-1.18.12-.65.44.64,0,.83-.52,1.38-.25-.22.16-.57,0-.85.3l.45.1.33-.19,0,0c.81.24.75-.26,1.47-.39-.42-.18.09-.45-.22-.56.48,0,.83,0,.84.26-.9.21-.06.28-.89.53.14.1-.2.38.3.41.56-.18-.17-.22.39-.3,0,0,.07.05,0,.09.25-.14.3.05.61-.1l-.08.05c.38.16.42-.18.75,0-.13-.2.22-.16.42-.28-.33-.07-.51-.35-1.17-.34-.08.15,0,.24-.3.31L56,23l-.25.1L55.29,23c.52-.11.28-.27.51-.43.47.07.39,0,.69,0,0,.22.91.38,1.46.53H57.7c-.4.14.27.19.29.25l.29-.11c-.06,0-.13.06,0,.1.39,0,.37-.26.76-.3,0,.12-.3.3-.06.37a.84.84,0,0,0,.87.29.65.65,0,0,1,.33-.09l-.06,0,.35.13c-.3.21-.6-.1-.89.11l0,.2a1.47,1.47,0,0,0-.69.18,2.92,2.92,0,0,0,.82-.05c.06.13-.22.22-.26.23l.06-.11c-.47-.17-.7.18-1.29.14-.08,0,0,0,0-.06-.47.19-.94-.07-1.4.18l.15-.1c-.31.08-.92.27-1.53.46v.08c.07.05-.16,0-.28,0h0l-.84.24a.59.59,0,0,0,.29.1c.09-.09.65,0,.58-.22.25.13.67-.05.86,0-.34-.13.24-.19.31-.31.11.13.51,0,.46.17s-.17-.12-.31,0c-.37.16.66.14.21.3.57-.12,1.33-.07,1.93-.23l-.34-.07c.27,0,.89,0,.94.08-.2,0-.43,0-.68.05,0,.19.61,0,.63.12l.73-.32-.32,0a4.48,4.48,0,0,1,1.37.06c-.29.27-.75,0-1.27.11s.23.27-.13.33a.54.54,0,0,0,.45,0l.14.05c-.32.24-1,.19-1.52.39a.21.21,0,0,0,.1-.08,2.56,2.56,0,0,0-1.1,0,.43.43,0,0,0,.37,0c0,.06-.32.08-.45.15.33.07.06.15.27.19a1.57,1.57,0,0,1-.65,0c-.14-.09.11-.13.08-.25-.27.07-.39-.22-.79-.08.53.05-.14.27-.32.35h.08c-.16.14-.31.14-.42,0,.21-.05.42,0,.36-.16a1.78,1.78,0,0,0-.44.06l.14-.11-.71,0a3,3,0,0,0-.4.5c-.17-.12-.41,0-.57,0l.08-.05a1.6,1.6,0,0,0-1.07.09c-.23-.1,1.58-.72,0-.62-.6,0-.38.37-.72.49,0,0,0,0,0-.06-.27,0-.29.11-.51.17a.65.65,0,0,0,.46,0c-.08.16-.55,0-.75.11.26-.23-.51-.09-.31-.21a1.76,1.76,0,0,0-1.35.21c-.36-.3-.63,0-1.2-.1a2.28,2.28,0,0,1,.37,0c.33-.19-.6-.1-.09-.27-.11,0,0,.1.1.07s.38-.1.33-.19L49,26l.16-.05-.71-.22s0,.08.08.1c-.83-.09-1.77,0-2.5,0-.13.52-1.78.24-2.36.56.15-.15.24-.42.14-.53.13,0,.4-.23.69-.19,0,.08.42.18.18.28.82-.07-.11-.23.13-.43a10.17,10.17,0,0,0-2,.49V26l-.43.12c.35,0,.33.33-.12.23h0c-.26-.12-.79,0-1.2,0l-.27.17c-.41,0-.43-.33-.56-.52a3.39,3.39,0,0,0-1.45.41c-.21-.14-1.16-.15-.66-.33-.57.13-.45.88-1.44.48L37,26.4a18.59,18.59,0,0,1-2.72.21c.34-.49-1.18-.46-1.36-.93,0,.1-.3.15-.35.21a.27.27,0,0,0-.34,0c.37.09-.25.5.45.29a2.12,2.12,0,0,1-1.58.61v-.2l.61,0c-.06-.14.25-.14.38-.21-1.14-.08.14-.47-1-.41-.11.13,0,.08-.34.14.14,0,.17-.15-.06-.15l-.22.17c-.42-.32.67-.24.32-.46.44-.17,1.23-.27,1.07-.52-.74-.08-.65.49-1.42.4l-.09-.1c-.27.08-.31.25-.45.36,0-.06-.09-.1-.26-.11a11.71,11.71,0,0,0-1.17.62c1.12-.25,1,.16,2.12-.06-.18.08-1,.17-1,.45v-.2a3,3,0,0,1-1.23.18l.29-.13c-.62.16-1.05-.26-1.54.09a1.1,1.1,0,0,0,.43,0,3.23,3.23,0,0,1-1.08.08l-.72.36c0-.1-.45-.09-.24-.25-.53-.13-.76.17-1.06.23-.54-.19.46-.11.5-.39a4.19,4.19,0,0,0-1.93.26c.15,0,.23.06.22.11s-.32,0-.48,0l-.11.13c-.28-.07-.25-.15,0-.26-.26,0-.56.25-.84.08.44-.18,1-.07,1.25-.18-.94.18-1-.34-2.15-.12,0-.06.18-.19-.05-.18-.53.07-.13.27-.29.42a1,1,0,0,1,.85.12l-.11.11c0-.05-.27,0-.35-.09l-.06.21c0-.23-.4-.39-.72-.29.34.16.25.15.35.42-.44.27-.52-.22-1,.07,0-.07.48-.16.09-.19s-.27.19-.48.26c.23-.21.16-.35.41-.6a3.35,3.35,0,0,0,.78-.13l-.48-.14c.48-.06.34-.24.38-.32-.83-.15-.6.33-1.13.31-.25.15.49,0,.1.17-.49,0-.11.13-.65.25l.08-.1c-.17-.1-.33.05-.52.08s.27.67-.61.74a.24.24,0,0,0,.05-.12L18.2,26c-.89.06-1.93.07-3,0-.27-.31.72-.32.65-.46l.48,0c0,.14-1,.11-.55.33a7.84,7.84,0,0,0,2-.35c-.26-.31-1,.12-1.57-.1a1.45,1.45,0,0,0,.57-.1l-1.56,0-.12.09.66,0c-.49,0-.9.21-.92.45H15l-.17.09ZM1.06,3.5l.09.07S1.1,3.58,1.06,3.5Zm23,21.12-2,0c1.16.41,2,.72.07.81l-.12,0a4,4,0,0,0,1.08,0,11.84,11.84,0,0,0,1.35-.88c-.13-.13-.29,0-.5,0Zm.5.77c.38,0,.29-.07.34-.16l-.39.05C24.57,25.3,24.6,25.33,24.57,25.39Zm.32-.26h0Zm-7.27.26h-.23A.66.66,0,0,0,17.62,25.39Zm.77.18.08-.17h-.25A.25.25,0,0,0,18.39,25.57Zm2.46.43c.14-.22.65-.25.68-.49,0-.06-.08-.08-.2-.09h-.44a.14.14,0,0,1-.08.1c.15,0,.25.08.2.23-.4-.3-.34.24-.76.18C20.12,26.1,20.72,26.07,20.85,26ZM53.2,24.73l.11.14L53,25c-.53-.05-.95-.39-1.43-.1a1.12,1.12,0,0,1-.46-.35l.3,0C52.76,24.14,52.12,25,53.2,24.73Zm-6.09-.41a.14.14,0,0,0,.07-.06,7.91,7.91,0,0,1-2.79.56c.12.17.7.3,1,.37l-.24.2L45,25.23l-.42.19c.12.13.46.1.68.2,0,0,.74-.27.94-.4l-.57-.13A4.77,4.77,0,0,0,46.82,25c0-.09-.52-.24-.58,0-.07-.14.54-.15.16-.3a3.25,3.25,0,0,1,1.5,0L48,25c.36.1.25-.29.68-.15-.53.05.09.27-.33.29.13.09,0,.26.43.24.35-.33.44.2.78-.09.22.1-.24.2.2.24.5-.17.48-.29.51-.53-.48-.07-.53.31-.92.25l.77-.41a.62.62,0,0,0-.34,0,1,1,0,0,0,.4-.17l.18-.12c-.44,0-.82,0-.89-.1l.06-.12a.55.55,0,0,0-.53.06c-.39,0-.78.18-.86,0l.15-.11C47.77,24.3,47.71,24.31,47.11,24.32Zm-15.75,0c.3.42.63.78,2,.67l-.11,0c.69.25,1.33-.38,2.16-.1a2,2,0,0,0-.82.52l.44-.13c-.12.23.31.11.63.11l-.28.28c-.19-.08-.69-.09-.67,0s-.66-.33-1.07-.24c0,.18.92.09.53.4.34-.14.39.05.75,0-.34.14-.08.26-.34.4l.59-.08c0,.06-.85.16-.37.37.24-.1.87,0,.87-.19l0,.06c.44,0,.19-.28.73-.18,0-.1-.1-.17-.29-.14s-.19.18-.52.21c-.16-.15.4,0,.16-.24s-.88.13-.64-.17l.44,0c0-.2.32-.19.31-.35.27-.08.53.14.8,0,.11-.13-.09-.36.37-.27a3.25,3.25,0,0,0,1.8.17l.34-.13c0-.13-.66,0-.44-.14l.54-.06,0,.08a1.61,1.61,0,0,0,.52-.11c-.17.14-.56.09-.48.29.25,0,.29.12.52.08,0,0-.09,0-.08.06.51.08.49-.24.61-.3.51-.28-.52-.25-.45-.46l1.49-.13c-.12.07-.25.13-.2.22.36.09,0,.16.52.14,0-.28.65-.18,1-.35.17.12.21.14-.17.15,0,.18.55.1.72.12s.28-.07.39-.12c-.15-.09-.08-.2.24-.28l0,0c-.53-.05-1.35-.24-1.68-.05l.09-.09c-.61-.15-1.33.34-1.62,0,0-.14-.12,0-.11-.23l-.45.16.09-.09-.76.06,0,0c-.36.18-.65.33-.87.46,0,.08,0,.11-.1.17a.57.57,0,0,1-.3.05h0c-.18,0-.31-.15-.54-.19l.71,0c0-.14,0-.3-.36-.39.14,0,.2-.13,0-.14,0,0-.47.1-.3.22a10.78,10.78,0,0,0-2.8,0c.74-.18-.59-.18.22-.26-.57-.22-.48.24-1.07.22-.05-.08.32,0,.45-.16-1-.08-1.63.41-2.57.37l0-.19Zm-1.85.29-.55.08H29l-.54.16c.33.06.56.25.1.36,0-.07-.11-.16.06-.21-.32-.1-1-.19-.82.08.59-.28.15.35.61.14-.24.19-.5.12-.73.21.24-.16-.07-.34-.45-.4-.16.05-.6,0-.87.11.1.17-.13.27.31.3a1.29,1.29,0,0,1-.69,0c.11,0,.31-.07.29-.13a2,2,0,0,0-.52-.19l-.27,0,.07.05-.31.16c.41-.09.2.08.19.17,0-.19-.26,0-.4,0l.31.2c-.14.11-.53-.13-.44.07a5.13,5.13,0,0,0,1.48-.07l-.24-.16c.66-.14.42.27,1.16.23.3-.16,1.12-.05,1.12-.35-.09.1.47.25.73.11s1.12-.34.86-.46-.54.16-.73,0l.45-.07-.3-.14C29.61,24.93,29.59,24.79,29.51,24.57ZM19.43,23.34h0Z"/><path class="cls-1" d="M59.82,24.13c.13-.06.45-.05.38-.2C60.21,24.09,59.64,24,59.82,24.13Z"/><path class="cls-1" d="M60.2,24.29s0-.1.15-.1l-.39,0Z"/><path class="cls-1" d="M60.59,25.39a1,1,0,0,1,.65-.17c.12.39-.52.1-.66.47.58,0,.76-.3,1.24-.33C61.58,25.19,60.61,25.09,60.59,25.39Z"/><polygon class="cls-1" points="60.33 25.88 60.66 25.8 60.62 25.77 60.3 25.86 60.33 25.88"/><path class="cls-1" d="M53.32,22.46c0-.12-.23,0-.34,0A.52.52,0,0,0,53.32,22.46Z"/><path class="cls-1" d="M4.4,11.25c-.12-.94-.25-1.87-.4-2.8C4.12,9.26,4.22,10,4.4,11.25Z"/><path class="cls-1" d="M45.11,23.27a14.84,14.84,0,0,1,1.63-.38c-.89-.25-1.17.39-1.92.14Z"/><path class="cls-1" d="M45.34,22.3c.11.23-.52.27-.42.44.45-.06.21-.22.62-.2Z"/><polygon class="cls-1" points="48.36 26.09 48.16 26.21 48.32 26.16 48.36 26.09"/><polygon class="cls-1" points="42.3 22.53 42.38 22.47 42.04 22.4 42.3 22.53"/><path class="cls-1" d="M42.45,22.42l-.07,0Z"/><polygon class="cls-1" points="48.1 26.58 48.4 26.63 48.55 26.52 48.1 26.58"/><path class="cls-1" d="M45.46,25.36l.27-.08C45.67,25.3,45.31,25.21,45.46,25.36Z"/><polygon class="cls-1" points="40.27 22.45 39.94 22.54 39.97 22.57 40.3 22.47 40.27 22.45"/><path class="cls-1" d="M43.37,26c.19.17-.53,0-.15.2C43.56,26.18,43.42,26.09,43.37,26Z"/><path class="cls-1" d="M39.43,24.85a.31.31,0,0,0-.13,0Z"/><path class="cls-1" d="M39.43,24.85c.15,0,.29.06.38,0A.46.46,0,0,0,39.43,24.85Z"/><path class="cls-1" d="M37.81,24.92h.13c-.13.09-.07.07.05,0s.12-.06.14-.1l.08-.07-.11.06C37.89,24.83,37.76,24.84,37.81,24.92Z"/><path class="cls-1" d="M31.71,22.07c.48.05.6.08.58.22.45,0,.38-.2.65-.26C32.43,22.07,32.32,22,31.71,22.07Z"/><path class="cls-1" d="M32.94,22l.18,0Z"/><polygon class="cls-1" points="39.73 26.39 39.43 26.6 39.54 26.57 39.73 26.39"/><path class="cls-1" d="M31,22c.09,0,.23,0,.3,0C31.33,21.92,30.91,22,31,22Z"/><path class="cls-1" d="M32.9,24.66c.05.08.35,0,.47.06C33.2,24.7,33.05,24.45,32.9,24.66Z"/><path class="cls-1" d="M29.65,22.63c.09,0,.23.09.17.21C30,22.77,30.11,22.52,29.65,22.63Z"/><polygon class="cls-1" points="32.03 24.66 32.1 24.7 32.42 24.61 32.03 24.66"/><path class="cls-1" d="M33.23,26.65c.36-.17-.59-.38,0-.53-.82-.15.06.23-.53.22C33.09,26.38,33.26,26.59,33.23,26.65Z"/><path class="cls-1" d="M32.74,26.34h0Z"/><path class="cls-1" d="M27.58,25.46l.12-.06Z"/><path class="cls-1" d="M30.83,26.52l.54-.26c-.36.18-1.28.2-1.21.44a1.25,1.25,0,0,0,.79-.15Z"/><path class="cls-1" d="M24.41,22.32l.23-.11-.29,0C24.43,22.23,24.29,22.41,24.41,22.32Z"/><path class="cls-1" d="M24.29,22.19h0Z"/><path class="cls-1" d="M28.61,25.3a1.11,1.11,0,0,0,.48,0C29,25.21,28.58,25.18,28.61,25.3Z"/><polygon class="cls-1" points="22.75 22.75 23.14 22.69 22.71 22.73 22.75 22.75"/><polygon class="cls-1" points="20.9 22.42 20.83 22.38 20.51 22.48 20.58 22.53 20.9 22.42"/><path class="cls-1" d="M23.48,27.12c.26,0,.46-.22.39-.26l-.51,0c.13.19.14,0,.44,0Z"/><path class="cls-1" d="M7.33,23.75c.11-.13.68-.11.72,0s-.38.14-.18.2l.42-.35c.61.14-.42.45-.7.59.6,0,.77-.24,1.41-.29a1,1,0,0,1-.42-.14c0-.22.57-.17,1-.23-.28-.07-.12-.16.07-.27,0,0,.06,0,.07,0l.07,0h0a.11.11,0,0,0-.05-.09c-.36.09-.65-.07-.88-.05.26.33-.78.15-1.06.29l-.34.07H7.28s0-.09.19-.18c-.16.08-.69.11-.64.22l-1.21.12a.22.22,0,0,1-.11,0s0,0,0,.07l-.15,0a.19.19,0,0,1-.13,0,.14.14,0,0,1-.06-.12v-.36c0,.1-.11.2-.15.32-.1,0-.12,0-.13.07s0,.08-.12.12,0-.15,0-.24-.2.14-.33.17c-.14.41.35.13.32.34s-.26.13-.17.25H4.52c.13,0,.1.13.1.2s0,.1.19-.06l-.12.2a1.64,1.64,0,0,1,.51-.14l0,0c.18-.13.21-.15.25-.15h.15l.57-.09-.48.28c.38.06.44-.2.71-.2,0,0,.06.18-.19.24L7.46,24C7.76,23.79,7.39,23.83,7.33,23.75Z"/><path class="cls-1" d="M9,23.9a1.06,1.06,0,0,0,.24,0Z"/><path class="cls-1" d="M5.15,23v.13A.28.28,0,0,0,5.15,23Z"/><path class="cls-1" d="M10.84,23.31c-.24-.08.16-.16.19-.23l-.81.07c0,.07-.06.16,0,.23Z"/><path class="cls-1" d="M10,23a.48.48,0,0,1-.2.16l.44,0C10.22,23.09,10.16,23,10,23Z"/><polygon class="cls-1" points="10.34 27.08 10.2 27.09 9.99 27.17 10.34 27.08"/><path class="cls-1" d="M8.1,26.93c.17.1.49,0,.59-.06A3,3,0,0,0,8.1,26.93Z"/><polygon class="cls-1" points="8.64 28.13 8.29 28.22 8.33 28.24 8.64 28.13"/><path class="cls-1" d="M4.51,20v-.2C4.5,19.85,4.51,19.91,4.51,20Z"/><path class="cls-1" d="M4.61,23.16c.22-.43.15.26.42.07L5,23.05H5a2.39,2.39,0,0,1,0-.36c-.12.12-.13.22-.26.19.08-.87.16-.27.33-.9,0-.33,0-.65,0-1l0,.08a.25.25,0,0,0,0-.15c0-1.09,0-2.19-.08-3.28-.11-.59-.21.33-.4-.1,0,.69-.12,1.71.13,1.77,0,0-.1-.07-.13.07l.21.4.06-.38a3.71,3.71,0,0,1,0,1.93c-.06-.74-.31-.37-.16-1.39-.06,0-.18.23-.21,0,0,.6,0,1.17,0,1.74q0,.43,0,.87v.22a1.08,1.08,0,0,0,0,.16A1.66,1.66,0,0,0,4.61,23.16Z"/><path class="cls-1" d="M4.22,11.46h0S4.22,11.44,4.22,11.46Z"/><path class="cls-1" d="M4.23,11.86l.28.56c0-.3,0-.61-.09-.91l-.17,0a.82.82,0,0,1,.1.52Z"/><path class="cls-1" d="M4.71,13.09c-.11-.47-.3-.43-.38-.16-.12-.42.2-.25,0-.53-.14,0,0,.55,0,.67Z"/><polygon class="cls-1" points="4.78 16.57 4.69 16.44 4.68 16.77 4.78 16.57"/><path class="cls-1" d="M4.69,16.44v-.32a.34.34,0,0,0-.16.1Z"/><path class="cls-1" d="M4.72,15.27a3.68,3.68,0,0,0,0-.48Z"/><path class="cls-1" d="M4.69,15.64h0v-.36Z"/><path class="cls-1" d="M4.7,16.12c.14-.06.28-.13.22-.6l-.21.11Z"/><path class="cls-1" d="M6,28.14l-.16.06-.08,0-.13,0,.06,0a1.45,1.45,0,0,0,.19-.06l.15-.06Z"/><path class="cls-1" d="M3.35,28h-.3A.75.75,0,0,0,3.35,28Z"/><path class="cls-1" d="M1,27.61c-.28-.65.68.62,0-.44.05-.19.45.2.81.6-.12.09-.44-.32-.28,0,.36.15.41.29.43.06a2,2,0,0,0,1.1.14,2.26,2.26,0,0,1-1.17-.72A6.18,6.18,0,0,1,1.05,26c-.32-.38-.54.06-.84.24A2,2,0,0,0,.44,27C.61,27.38.88,27.67,1,27.61Z"/><path class="cls-1" d="M1.52,28.65A1.28,1.28,0,0,0,2,29C2.06,28.84,1.73,28.82,1.52,28.65Z"/><path class="cls-1" d="M2.36,22s-.09-.39-.17-.32l0,.54A.27.27,0,0,1,2.36,22Z"/><path class="cls-1" d="M2.25,22.47l0-.23A.66.66,0,0,0,2.25,22.47Z"/><path class="cls-1" d="M2.39,22l0,0S2.38,22,2.39,22Z"/><path class="cls-1" d="M4.73,13.92c.09,0,0-.25,0-.37A1.55,1.55,0,0,0,4.73,13.92Z"/><path class="cls-1" d="M3.37,4.74l0-.22A.4.4,0,0,0,3.37,4.74Z"/><path class="cls-1" d="M.43,2A.09.09,0,0,1,.37,2,.09.09,0,0,0,.43,2Z"/><path class="cls-1" d="M.37,2C.27,1.89.3,1.43.16,1.3h0L.07,1A3.48,3.48,0,0,0,.37,2Z"/><path class="cls-1" d="M86.87,22.91c.16-.14.35-.15.32-.06.26-.37.35-.25.25-.51.14-.27.46-.29.28,0l.52-.61-.38.25c0-.27.61-.4.59-.7l-.65.52V21.7a1.52,1.52,0,0,1-.54.44c0-.05,0-.09.07-.19-.8.6,0,.51-.64,1.06A.72.72,0,0,1,86.87,22.91Z"/><path class="cls-1" d="M85.91,23l-.14.44-.51.28c0,.09-.27.4,0,.31a1.12,1.12,0,0,1,.19-.18c.05.22-.59.54-.34.62.36-.31.43-.32.58-.63a3.13,3.13,0,0,1,.83-.43c.08-.1,0-.22.15-.34l-.08.07-.18-.25c-.07.13-.19.18-.31.27l.37-.71c-.33-.12-.78.42-1.06.47C85.82,22.9,85.28,23.14,85.91,23Z"/><path class="cls-1" d="M86.68,23h0Z"/><path class="cls-1" d="M63.48,16.29a.22.22,0,0,0-.11-.22l0,1.78c.08-.06.17-.57.21-.23a.78.78,0,0,0-.1-.68l.12.12c-.15-.41.13-.69.23-.42v0l-.58-1.12C63.24,15.89,63.47,15.79,63.48,16.29Z"/><path class="cls-1" d="M84.1,19.79c-.18-.13-.21-.13-.21-.09A1,1,0,0,0,84.1,19.79Z"/><path class="cls-1" d="M63.13,15.21l-.19-.35A1.15,1.15,0,0,0,63.13,15.21Z"/><path class="cls-1" d="M65.87,17.64h0l-.09-.16h0Z"/><path class="cls-1" d="M62.71,5.47l0-.14A1.21,1.21,0,0,0,62.71,5.47Z"/><path class="cls-1" d="M66.82,22.62l-.13-.83c.07.11.06-.28.15-.11,0-.06,0-.35-.08-.28v.17c-.23-.44-.32-.18-.49-.9a1,1,0,0,0,.08.88,1.77,1.77,0,0,1,0,.21l.3.7Z"/><path class="cls-1" d="M75.49,14.06h0Z"/><path class="cls-1" d="M75.4,14.12l.07,0S75.28,14,75.4,14.12Z"/><path class="cls-1" d="M63.28,15.34a.28.28,0,0,1-.15-.13l.14.27S63.28,15.39,63.28,15.34Z"/><path class="cls-1" d="M63.81,15.93l0,.67.13.25C63.93,16.59,63.89,16.29,63.81,15.93Z"/><path class="cls-1" d="M62.33,6.84c0-.55,0-.8.09-.82s0,.07.07.25c.06.34.12.81.18.36s0-.5,0-.67a2,2,0,0,1,0-.49c-.18.72-.23.6-.33.45s-.23-.35-.25.62A1.51,1.51,0,0,1,62,6.1a1.4,1.4,0,0,1,0-.54,2.53,2.53,0,0,1,.37-.84c.22-.15.19,0,.12.22a1.24,1.24,0,0,0-.05.7,2.05,2.05,0,0,0,.12-.85,5.59,5.59,0,0,1,.79-1.13,1,1,0,0,1,1-.38,1.83,1.83,0,0,0,.47-.19.75.75,0,0,1,.27-.19c0-.16-.23-.21-.47-.21a3.72,3.72,0,0,1-.72,0s.17,0,.15.06a2.86,2.86,0,0,0-.58.2c.57-.19,0,.26-.2.49s-.47.46-.47.36l.21-.29c-.38.22-.51.86-.8,1.15-.06,0,0-.21,0-.26L62,5.29c0,.08,0,.15,0,.24a.72.72,0,0,0,0,.27c0,.22,0,.45,0,.71l-.18-.74a7.21,7.21,0,0,1,0,1.82c0,.33-.06.68-.11,1l-.08.5,0,.51c0-.14.07-.4.12-.23a3.58,3.58,0,0,1,0,.91c0,.11-.06.1-.09.13s-.07,0-.1-.06c.21.4-.13,1.53.14,2.06l1.3,2.44a1.37,1.37,0,0,1-.07-.29c.21-.23.18-.35.39,0-.12-.39-.29-.23-.31-.81.11.22.36.27.37-.29a9.14,9.14,0,0,0-.58-1.83c-.11-.28-.23-.56-.34-.86-.06-.14-.11-.29-.16-.44a6.57,6.57,0,0,1-.15-.79,17.57,17.57,0,0,0,.28-2.48,5.63,5.63,0,0,1,.17,1.57c0-.36.06-1,.1-1.42A4.56,4.56,0,0,1,62.33,6.84Z"/><path class="cls-1" d="M62.78,11.43a.61.61,0,0,0,0-.11A.39.39,0,0,0,62.78,11.43Z"/><path class="cls-1" d="M62.52,8.85l0,0V8.68Z"/><path class="cls-1" d="M63.65,15c.05.08.06.14.11.22s0-.12,0-.18S63.67,15,63.65,15Z"/><path class="cls-1" d="M63.37,15.29l-.07,0,0,.09A.07.07,0,0,0,63.37,15.29Z"/><path class="cls-1" d="M66.87,6,67,6C66.92,6,66.89,6,66.87,6Z"/><path class="cls-1" d="M63.06,5.05c-.13.27-.08.35-.05.44a1.26,1.26,0,0,1-.08.62A1.43,1.43,0,0,1,63,5.89l-.09.55c0,.2,0,.46,0,.7l-.07,1.41c-.09-.14-.14.46-.28.32a3.7,3.7,0,0,0,.23,1.51c-.05.25.1.62,0,.94.09-.14.32.43.19-.33,0,.06,0,0,0,.08.12-.52-.1-.6-.12-1.26.08-.35.16.59.19.26a4.38,4.38,0,0,1,0-.67l0-.71c0-.45,0-.83-.17-.91,0-.54.07-.57.13-.68a2.21,2.21,0,0,1,.28-1.69c.25-.49.62-.8.51-1a1.87,1.87,0,0,0-.57,1Z"/><path class="cls-1" d="M63.61,14.2v0Z"/><path class="cls-1" d="M62.31,20.23,62,20c-.06-1.11,0-1.52,0-2.51,0-.07.07.05.08.11A13.9,13.9,0,0,0,62,15.38c0-.22.08-.81.17-.59a1.34,1.34,0,0,1,0-.35c.11,0,0,.28.13.28s0-.14,0-.16c.1.16.37-.18.38.59-.25.31,0-.53-.32-.35,0,.26.11.23.15.25,0,.33-.07.32-.14.3.09.13,0,.54.11.71,0,.64-.21,0-.2.38l.29.24-.05.69c.11,1,.5-.15.67,1-.15-.15-.4.31-.46.84a5.9,5.9,0,0,1-.12-1.31c-.22.58,0-.79-.28-.49a2.18,2.18,0,0,1,.07,1.12l0-.12c0,.4.27.69.15,1.24,0,.26-.07.21-.14.16C62.32,20,62.37,20.23,62.31,20.23Zm-.05-.58,0-.36A.6.6,0,0,0,62.26,19.65Z"/><path class="cls-1" d="M82.07,25.65l.09,0Z"/><path class="cls-1" d="M64.28,33.19l0,.1A.16.16,0,0,0,64.28,33.19Z"/><path class="cls-1" d="M65.09,33.61l0,0,.06-.06,0,0Z"/><path class="cls-1" d="M80.11,26.87h0l0,0Z"/><path class="cls-1" d="M67.41,33.37h.16S67.49,33.34,67.41,33.37Z"/><path class="cls-1" d="M65.07,33.63h0l0,0Z"/><path class="cls-1" d="M65.42,32.08v-.15A.74.74,0,0,0,65.42,32.08Z"/><path class="cls-1" d="M64.56,32.18a.74.74,0,0,0,0-.15Z"/><path class="cls-1" d="M66.14,24.69l0-.3A.81.81,0,0,0,66.14,24.69Z"/><path class="cls-1" d="M64.91,31.45l0-.05S64.89,31.46,64.91,31.45Z"/><path class="cls-1" d="M83.9,25.54h0v0Z"/><path class="cls-1" d="M84.2,24.78l.18-.15A.9.9,0,0,0,84.2,24.78Z"/><path class="cls-1" d="M71,32.12c.07,0,.24,0,.19.07C71.26,32.07,71.2,31.93,71,32.12Z"/><path class="cls-1" d="M83.73,28a1.42,1.42,0,0,1,.08-.18C83.75,27.89,83.69,28,83.73,28Z"/><path class="cls-1" d="M83.81,27.79l.09-.14A.42.42,0,0,0,83.81,27.79Z"/><path class="cls-1" d="M70.39,35.33a.11.11,0,0,0-.08,0S70.36,35.35,70.39,35.33Z"/><path class="cls-1" d="M84.56,24.56c0-.09.74-.8,0-.35-.09-.22.39-.4.55-.58-.16.05,0-.17-.09-.21a1.29,1.29,0,0,1-.31.31c-.12-.05.07-.27.27-.36-.28.05.18-.35-.17-.21a4.77,4.77,0,0,0-1.36,1.55,4.14,4.14,0,0,1,1.1-.81l0,.27c-.44.09-.59.35-1,.58l.83-.45c.45-.11.22.09-.05.33C84.45,24.58,84.52,24.54,84.56,24.56Z"/><path class="cls-1" d="M84.88,26.46h0l0,0Z"/><path class="cls-1" d="M62.43,24.44l-.06-.09Q62.42,24.46,62.43,24.44Z"/><path class="cls-1" d="M83.94,25.94Z"/><path class="cls-1" d="M62.24,26.56h0Z"/><path class="cls-1" d="M66.11,27.69h0C66.13,27.63,66.12,27.65,66.11,27.69Z"/><path class="cls-1" d="M62.25,26.57a0,0,0,0,1,0,0Z"/><path class="cls-1" d="M59.39,39.24l.17-.23S59.49,39.08,59.39,39.24Z"/><path class="cls-1" d="M61.06,36l0-.07Z"/><path class="cls-1" d="M70.22,31.5a.89.89,0,0,0-.2.11A1,1,0,0,0,70.22,31.5Z"/><path class="cls-1" d="M62.22,26.55l0-.11A.61.61,0,0,0,62.22,26.55Z"/><path class="cls-1" d="M62,38.19l-.08.06h0Z"/><path class="cls-1" d="M62.83,38l-.13.13c.43-.3,1-.48,1.23-.82-.13.07-.63.17-.42-.07-.27.19-.46.12-.6.23.24,0-.13.26-.47.5-.17,0,.22-.3.07-.27l-.53.28.41-.16-.38.41.07-.06C63,37.59,61.83,38.59,62.83,38Z"/><path class="cls-1" d="M62.7,38.09l-.18.15A.68.68,0,0,0,62.7,38.09Z"/><path class="cls-1" d="M66.3,36.73l.16-.12Z"/><path class="cls-1" d="M64,17.32c-.06,0-.17.57,0,.56l0-.5Z"/><path class="cls-1" d="M74.72,31.38l-.15.08,0,0S74.68,31.42,74.72,31.38Z"/><path class="cls-1" d="M63.7,37a.86.86,0,0,0-.19.17A.93.93,0,0,0,63.7,37Z"/><path class="cls-1" d="M74.9,31.71c.08,0,.2,0,.24.07s.19-.2.31-.3A1.47,1.47,0,0,1,74.9,31.71Z"/><path class="cls-1" d="M75.46,31.47h0Z"/><path class="cls-1" d="M64,17l0-.14,0,.07,0-.38c0-.05,0-.09,0-.16a.09.09,0,0,0,0,.06v-.12c-.15-.3-.27-1.05-.37-1.27a3.37,3.37,0,0,1-.1-.85c0,.2,0,.47.12.39.07-.42.32-.63.09-1.34v.42l-.35-.93c.13-.34.18.46.3.59-.18-.73.23-1.35-.06-1.69a.52.52,0,0,0,.41-.62c-.18.35-.13-.29-.32,0-.1-.17,0-.54-.08-.57l.07,0c.23-.85-.18-1.21-.3-1.7s0-1,0-1.43a4.85,4.85,0,0,1,.19-1.14A.31.31,0,0,0,64.18,6a1.26,1.26,0,0,1,.17-.61c.12-.22.28-.37.27-.48a.49.49,0,0,0-.39.36,1.69,1.69,0,0,1-.11.41c-.26.08-.14-.17-.39.1A3.64,3.64,0,0,1,64.25,5a.73.73,0,0,1,.89-.17H65c.57.19.73.9,1.46,1l.37.08s0,0,0,0a2.21,2.21,0,0,1,.53.47,1.31,1.31,0,0,0,.6.36c-.06,0,0,0-.09,0a2.9,2.9,0,0,0,1.1.57c.08.26-.12.12-.28.16a4.28,4.28,0,0,0,1.86.79l.33.37c-.26-.11-.64-.16-.62,0,.23.12.23,0,.52.27a1.57,1.57,0,0,1-.5.07c.53.61.34-.24.6.37a.36.36,0,0,0,.48,0l.26.41c.13-.12.57.2.87.39.07,0-.14-.33-.28-.35.09-.1.43.08.62.23-.12.35,1.29.93.84,1.11.93.57,2.15,1.51,2.79,1.85.13.23.51.55.19.5.68.56,1.23.56,1.85,1.21,0,.08-.31-.26-.35-.14.52.25.71.8,1.44,1.31-.12-.09-.2-.06-.23,0s.34.14.55.24-.15-.08-.12,0c1.19,1.28,2.44,1.78,3.69,3-.36-.34-.63-.28-.69-.21l.35.34c.2,0,.46.28.74.42,0,.06.07.2-.07.14.54.84,1.33.7,2.09,1.62l-1.3-.63.15.38-.57-.27c.18.36.59.35.52.52-.09,0-.21-.16-.28-.09.21.31.32.22.53.38a10.36,10.36,0,0,1-2.3-1.61c-.1-.06.12,0,.16,0-.23-.19-.29-.41-.61-.62-.26,0,.07.21.2.35-.1.09-.17,0-.33-.1.07-.18-.8-.83-.87-1.19-.85-.7-.14.49-.89-.3l-.13-.38a7.58,7.58,0,0,1-1.75-1.22l.11.09c.13,0,0-.15,0-.24-.35-.42-.86-.53-1-.91a16.44,16.44,0,0,1-2.06-1.09c0-.34.83.39,1.15.44l-.49-.41a1.08,1.08,0,0,0,.74.29c-.4-.4-.67-.32-1.11-.6.07,0,0-.12-.15-.27l-.15.1s0,0-.06-.1l-.79-.5c.11.19,0,.33.22.48,0-.14.16,0,.35.13-.23,0,.13.23.07.3a10.29,10.29,0,0,0-1.12-.82v-.2c-.34-.32-.77-.55-1-.78h.13a8.4,8.4,0,0,1-1.21-1.07c-.48-.14-1.06-.37-1.49-.45-.27.05-1-1.08-1.62-1.15a3.38,3.38,0,0,1,.58.13c-.28-.25-.65-.19-.63-.45.63.55,0-.18.38,0a3.06,3.06,0,0,0-.86-.46c.51.36-.34.14.23.42a3,3,0,0,1-.78-.32,1.91,1.91,0,0,1-.49-.34c0-.09,0-.16-.06-.27a.52.52,0,0,0-.11.1c-.12-.12.27,0,0-.24-.16,0-.33-.12-.5-.25s-.33-.21-.3.08c-.12-.19-.06-.2,0-.22s.12,0-.06-.29c.15-.09.44.32.49.09-.19,0-.08-.28-.22-.37l-.22,0,.06,0c-.18,0-.37-.14-.65-.19a.44.44,0,0,0-.4.16.86.86,0,0,0-.19.41,3.78,3.78,0,0,0,.24,1,2,2,0,0,1,.17.69c-.13-.21-.11.35-.34-.06-.11.22,0,.52.12.52,0-.2,0-.07.06-.23a.43.43,0,0,1,.09.25.91.91,0,0,1,0,.3c0-.1,0-.06,0-.08-.06.48.11.22.17.57-.15.11,0,.75-.1,1.07l.23.45c-.15-.24,0,.44-.17.52A2.49,2.49,0,0,1,65.94,14c-.08-.2-.1.46-.24.48-.12.86.42,1.41.22,2.23,0,0-.13-.19-.16.05s0,.52,0,.72h0c0,.1,0,.16.06.16a4.24,4.24,0,0,1,.41,1.21c.16-.05.1-.63,0-.88l-.16-.21c.25-.21,0-.61,0-.77.31.4.23,1.58.41,2.29a5.23,5.23,0,0,0,.23-2.19l-.09.36V17l-.17.42c0-.41,0-.76,0-1.12,0,.43-.22.6-.18.35.15-.48-.12-.49-.11-.86,0,.21,0,.47-.11.3.19-.72,0-.91.25-1.56-.27.09,0-.81-.27-.9l0,.3-.18-.63c.21-.59.24.51.38-.39S66,12.14,66,11.5a2.27,2.27,0,0,1,.33,1.23l.07-.32a4.58,4.58,0,0,1,.09,1.25c-.2-.59,0,.28-.19.56.16,0,.13-.34.26.11a7.37,7.37,0,0,1,0-1c0,1.17.57,1,.46,2.07-.08-.47-.22.17-.29.23,0,.22.06.67.1.86l.23-.18c.1.6-.37.82-.13,1.51.14.09,0-.61.07-.49.15.95-.22,1.3-.39,2.15.07.05.21,0,.33.33-.13-.09-.21.13-.3-.21a2.32,2.32,0,0,0,.08.88c.09-.59.19.24.27.36,0,.3-.13-.1-.17-.29,0,.25-.25.53,0,.68-.15,0-.37-.7-.4-1.15l0,.3a1,1,0,0,1,0-.55c-.12.29-.24.26-.34.19s0,0,.06,0c0-.25,0-.44-.08-.38-.19-.22-.12.34-.22.5l0,.37.6,1.29a2.71,2.71,0,0,1-.22,1.2l.16.12c0,.48-.11.93-.3.61.06,0,0-.08.06-.18a.12.12,0,0,1,0-.07l0,0c0,.51,0,.84,0,.87-.19-.89-.3-.07-.59-.24l0,.88c.13-.52.15,0,.17.19-.17,0,0,.71-.1,1l0,0a4,4,0,0,0-.11,1.13,3.35,3.35,0,0,1,.41.73c.14-.61.16-.23.27-.27a.35.35,0,0,0,0,.2c0,.09.07-.12.13-.12a3.91,3.91,0,0,0-.17-1.64c-.12.19.07.35,0,.57a3.68,3.68,0,0,1,0-1.29l.15-.17,0-.55c.06.23.21.11.2.68.14-.06,0-.57.08-.91l-.17-.2c.09.08.16-.67.27-.12l.09.88.14-.23v.74l-.09-.19c0,1.2-.39.31-.28,1.53a2.37,2.37,0,0,1,0,1.54c0-.54-.15-.08-.25-.3a1.67,1.67,0,0,0,0,1c-.13.11-.24.19-.16-.28-.23-.11,0,.64-.3.63a3.3,3.3,0,0,0,.11,1.55,2.43,2.43,0,0,1-.22,1.72l-.09-.1v.19a.09.09,0,0,1,0,0s0,.08,0,.09a3,3,0,0,0-.37.3,1.52,1.52,0,0,0-.42.22c.36-.3.27-.32.46-.47a.55.55,0,0,0-.2.11c0-.07.16-.13.13-.19S65,33.09,65,33l.2-.13c0-.06-.12-.09-.19-.13a.1.1,0,0,1-.08-.07s0,0,0-.05,0,0,0-.13a.46.46,0,0,0,.19.2.56.56,0,0,1,.13.11c.05,0,.08.08.18,0-.11,0-.11-.08-.1-.11l.05-.22a4.39,4.39,0,0,0,0-.45.6.6,0,0,1,0,.29c.11-.32.2-.64.29-1-.17.21,0-.84-.18-.79a5.78,5.78,0,0,0-.19.9,4.83,4.83,0,0,1-.27,1,2,2,0,0,0-.18-1.06.1.1,0,0,0,0-.06c-.15-.22-.23-.05-.55-.13a1.4,1.4,0,0,1,0,.74c0,.11-.06.23-.08.36a.58.58,0,0,0,0,.26c.08.05.14,0,.19,0a.42.42,0,0,0,.05-.14,1.23,1.23,0,0,0,0-.25v.28c0,.09,0,.11,0,.16l-.06-.07c-.08.21-.14.42-.23.64,0-.12-.07-.14-.13-.21a1.32,1.32,0,0,1-.2.31c.19-.06.32-.08.29,0a3.8,3.8,0,0,1-.74,1.13v0c.25-.23.28,0,.5-.08-.26.21-.23.34-.41.59a14.59,14.59,0,0,0,1-1c-.21.07-.24.15-.57.35A1.05,1.05,0,0,1,64,34l.17,0c.17-.25,0-.32.21-.43s0,.23.14.19l.13-.16c.21,0-.29.27-.18.35.28-.27,0,0,.15,0s0-.27.43-.5c.08,0-.06.1-.18.26s-.23.31,0,.14l0,0c-.13.22.13,0,.3-.19l-.06.08s0,0,0,0l.11-.1-.16.18.12-.1c-.14.17-.16.17-.15.15l0,0s0-.06,0-.06l-.29.34c.14-.17.16-.2.12-.17s-.3.28-.42.37c.06,0,0,0,0,.05s0,.09,0,.07a.52.52,0,0,0,.13-.12l.23-.26-.22.31.13-.13A3.74,3.74,0,0,1,64,35l.14-.18-.14.14L63.9,35s-.06,0,0-.07l0,0,0,0,.07,0,0-.06c.07-.18,0-.23-.15-.09s-.23.42-.33.61l-.08.17,0,.08s0,.06,0,0l.27-.13c.68-.78,1-1.21,1.53-1.87.15-.15.24-.25.19-.07l-.07.11s.06,0,.11-.08c0,.12-.15.3-.15.36l.21-.24a.63.63,0,0,1-.3.35.23.23,0,0,0,.07-.11s-.1.07-.18.14-.14.12,0-.07c-.07.08.22-.31.15-.29,0-.13-.22.25-.32.38s0,.16-.19.37c.1-.06.24-.27.26-.17s-.4.43-.29.2c-.37.38-.95,1.17-.83,1.14a3.2,3.2,0,0,1,.37-.36c.13-.12.21-.22.16-.3.32-.36.52-.45.73-.68l0,0,.19-.14a1.81,1.81,0,0,0-.18.3,5.64,5.64,0,0,0,.35-.46c-.18.28,0,.12.09.18.05-.2.13-.36.08-.42s-.06.11-.14.16a2.41,2.41,0,0,0,.15-.33v0c0-.09,0-.17.07-.25s-.08.53.07.25a2.46,2.46,0,0,1,0-.28l.1,0,.06,0H66l.16,0a3.9,3.9,0,0,0,1.06-.47c-.09.21-.07.47.19.5a6.24,6.24,0,0,0-1,.49c-.08,0,.3-.49.68-.61-.34-.32-.81.68-1,.3-.15,0-.14.1-.19.22s-.08.23-.19.15c0,.22-.08.14-.13.35s.13.11.26,0,.24-.21.36-.21a.28.28,0,0,0,0,.11l.12,0,0,0,.09,0c.11-.07.19-.15.31-.24h0c.36-.39.32,0,.61-.05.09-.07.47-.2.36-.3l.53-.06-.1-.19c.26-.15.37,0,.56-.28l-.07-.19-.67.26c.3-.22,0-.22.37-.43-.33.4.32,0,.43.1l.23-.24,0,.09c.24,0,.22-.2.47-.3a1.22,1.22,0,0,0-.88.33,6.48,6.48,0,0,1,.83-.69c.25-.21.5-.18.77-.29-.47.33.4.45-.65.84,0,0,.08-.08.12-.07-.22-.16-.59.32-.78.51.11.11-.1.26.32.14-.17,0,.2-.46.61-.54l.06.31.55-.24,0,0c.28.08.56-.33,1-.41.23-.24,1.27-.7.71-.76.41,0,.6-.37.94-.6l-.49.12c.44-.48.34-.26.62-.81.08.05.2.06.15.19A6.82,6.82,0,0,0,75.16,29c.49-.27.72,0,1.35-.5.13-.12-.23-.2.26-.38,0,0-.34.46.15.14.26-.42.91-.37,1.28-.83.29-.07.7-.36.69-.14a3.34,3.34,0,0,0-1,.69c0-.13-.32.07-.07-.18-.65.22-.34.33-.91.55,0,.09.36,0,.45-.1.11.23-1,.72-.4.72.58-.31.52-.88,1.13-.93-.13.26-.5.32-.63.7l.45-.14.21-.34v.05c.82-.21.55-.63,1.12-1.13-.44.07-.11-.44-.43-.37.41-.29.73-.44.85-.22-.7.66.07.27-.55.94.16,0,0,.44.44.2.41-.46-.24-.1.21-.48,0,0,.08,0,.08.05.17-.25.29-.11.49-.42l0,.09c.41-.07.29-.39.65-.42-.2-.09.12-.26.25-.47-.32.12-.6,0-1.17.35,0,.18.08.23-.13.44l.37-.25c-.07.07-.11.14-.17.21l-.4.16c.41-.38.13-.39.25-.65.45-.2.33-.25.61-.37.07.2,1-.17,1.51-.36l-.23.14c-.28.34.32,0,.36,0l.2-.26c0,.05-.08.13,0,.09.32-.26.2-.44.52-.7.08.09-.12.44.12.36a.82.82,0,0,0,.89-.27c0-.06.11-.16.23-.27l0,0,.36-.09c-.15.35-.55.27-.71.63l.07.18a1.67,1.67,0,0,0-.51.56,3.54,3.54,0,0,0,.69-.53c.1.08-.09.32-.12.36v-.13c-.49.12-.53.56-1,.87-.08,0,0,0,0,0-.33.44-.86.47-1.15.94l.09-.17-1.16,1.26,0,.07c.08,0-.12.13-.25.17h0l-.64.67a.72.72,0,0,0,.3-.07c0-.13.58-.37.42-.51.29,0,.59-.41.79-.46-.37.08.13-.3.13-.43.16,0,.45-.3.49-.12.08,0-.2,0-.29.17-.25.34.66-.25.32.14.46-.43,1.16-.82,1.6-1.31l-.32.13c.24-.13.77-.52.85-.48-.16.13-.36.26-.57.44.08.18.53-.35.61-.26l.49-.71-.28.18c.11-.22.76-.5,1.2-.78-.11.4-.64.46-1,.87s.32.08,0,.35a.6.6,0,0,0,.38-.28l.15,0c-.16.41-.82.78-1.14,1.24a.38.38,0,0,0,0-.13,3.14,3.14,0,0,0-1,.62.52.52,0,0,0,.33-.22s-.25.27-.33.4c.32-.13.12.09.32,0a1.79,1.79,0,0,1-.58.39c-.16,0,0-.17,0-.26-.21.21-.45,0-.75.38.5-.26,0,.31-.13.48l.08,0c-.09.22-.21.3-.37.26.17-.18.37-.26.25-.35a2,2,0,0,0-.37.3l.08-.18-.63.42a4,4,0,0,0-.14.66c-.21,0-.38.21-.51.33l0-.08a2,2,0,0,0-.94.66c-.24,0,1.14-1.48-.25-.55-.55.32-.19.52-.46.82,0,0,0,0,0,0-.26.12-.22.25-.4.42a.74.74,0,0,0,.43-.24c0,.18-.51.28-.65.49.15-.34-.5.19-.36,0A2.1,2.1,0,0,0,76.4,33c-.44-.08-.56.35-1.15.52a1.9,1.9,0,0,1,.35-.19c.23-.33-.6.21-.19-.2-.09.08,0,.1.12,0s.31-.28.23-.33l-.5.09.13-.12-.75.15s.08.05.12.05c-.8.33-1.63.9-2.31,1.23.08.54-1.57,1-2,1.63.09-.22.08-.5-.06-.55.12-.08.29-.4.58-.5.07.05.45,0,.27.16.73-.44-.19-.15,0-.45a11.94,11.94,0,0,0-1.69,1.39l0,0-.36.31c.34-.13.44.15,0,.26l0,0c-.29,0-.74.4-1.12.57l-.2.28a.5.5,0,0,1-.25.05.58.58,0,0,1-.23,0c-.14-.05-.23-.15-.35-.19a10.81,10.81,0,0,0-2,1.4c-.29,0-1.59.58-.82,0a6.39,6.39,0,0,0-1,.94,2.12,2.12,0,0,1-1.31.67l.47-.38c-.68.35-1.58.86-2.41,1.31a10,10,0,0,1-1.76.86c.39-.35.44-.49.36-.54a.05.05,0,0,0,0,0v-.07l0-.14c0-.1,0-.2.06-.32a13.51,13.51,0,0,1,1.14-1.68c-.23.28-.07-.17-.14-.14.15-.22.33-.49.25-.55-.41.74-.67.41-.84,1.22-.35.07-.36-.54.35-2.13l.27-.18L59,38.63c.28-.32,0,.3,0,.43.54-1.14.69-1.2.82-1.27s.24-.13.61-1.07c-.11,0-.08,0,.06-.45-.09.24.08.15.24-.22a2.09,2.09,0,0,1-.08-.23c.33-.45.3-.21.26,0s-.13.49.14.12c-.07.54-.34,1.47.15.9.24-.51.14-.56.06-.66a.3.3,0,0,1-.06-.24,3.08,3.08,0,0,1,.2-.6l.18-.19c0-.31-.16-.27-.21-.44a.86.86,0,0,0,.27-.43,4.47,4.47,0,0,1,0-.82,5.66,5.66,0,0,0,0-.9,5.13,5.13,0,0,1-.55,1.73,8.93,8.93,0,0,0-.67,1.8c0-.23.44-1.6.18-1.61l.21,0c.07-.32.15-.64.25-1a11.61,11.61,0,0,1,.31-1.13c0,.17,0,.34,0,.5a6,6,0,0,1,.18-.73,4.08,4.08,0,0,1,.19-.55,1,1,0,0,0,.1-.77,1.78,1.78,0,0,0-.08.45,5.31,5.31,0,0,1,.19-1.15l-.15-.83c.1,0,.17-.46.28-.2.21-.53,0-.85,0-1.18.27-.54,0,.51.25.61a6.16,6.16,0,0,0,.18-1.17,4.18,4.18,0,0,0-.07-.94c0,.15-.09.23-.14.22s.08-.35.1-.53l-.1-.13c.11-.29.17-.24.23,0,.05-.28-.14-.65.05-.93.11.51-.09,1.12,0,1.39,0-1,.45-1,.39-2.34.06,0,.15.22.17,0,0-.59-.23-.17-.35-.36a1.2,1.2,0,0,1-.2.91l-.09-.13s.07-.3.13-.38L62.37,24c.21.05.41-.39.34-.76-.17.35-.16.26-.4.34-.21-.52.24-.56,0-1.13.07,0,.1.54.17.12s-.14-.31-.19-.55c.17.27.3.21.5.51a5,5,0,0,0,0,.87l.17-.51c0,.53.19.4.25.44.22-.9-.24-.7-.17-1.28-.11-.29-.05.54-.16.1.05-.55-.1-.13-.16-.75l.08.11c.1-.19,0-.38,0-.6s-.61.26-.61-.72c0,0,.08.06.1.06l1.47,1c0-.5,0-1.05,0-1.61s.06-1.15.11-1.74c.28-.28.24.84.37.77l-.06.53c-.13,0,0-1.12-.26-.64a13.08,13.08,0,0,0,.18,2.28c.3-.27,0-1.18.2-1.77a2.33,2.33,0,0,0,0,.66q.06-.83.12-1.77l-.07-.14c0,.42-.06.71-.07.75,0-.56-.13-1-.35-1.06v.1L64,17.38Zm19.12,2.28H83S83.06,19.24,83.13,19.27ZM64.24,28c.14-.74.25-1.49.35-2.21-.54,1.26-1,2.1-.73,0V25.6a5.45,5.45,0,0,0-.15,1.21c.13.38.5,1.66.55,1.66s0-.33.1-.56Zm-.77.41c-.1.41,0,.33.08.41l0-.45C63.55,28.42,63.52,28.44,63.47,28.4Zm.16.4a.23.23,0,0,1,0-.11Zm.71-8.18v0l0-.3A.64.64,0,0,0,64.34,20.62Zm-.22.85.15.11,0-.29A.26.26,0,0,0,64.12,21.47Zm-.62,2.71c.17.19.14.76.35.82,0,0,.08-.08.1-.22l0-.48s0-.05-.08-.11c0,.17-.09.28-.22.2.31-.41-.17-.4-.07-.87C63.49,23.36,63.45,24,63.5,24.18Zm15.06,5.45a.64.64,0,0,0,.16.07L78.5,30c-.5.23-1,.15-1.33.66a1,1,0,0,1-.56-.08l.29-.12C77.93,29.35,77.71,30.46,78.56,29.63Zm-5.7,2.71a.11.11,0,0,0,0-.08,8.75,8.75,0,0,1-2.37,1.83,2.66,2.66,0,0,0,1-.12l-.15.29-.2-.07-.32.36c.16.07.46-.12.71-.13,0-.05.59-.6.73-.81l-.59.16a5.26,5.26,0,0,0,1.12-.63c0-.09-.58,0-.56.25-.11-.1.45-.4,0-.35a3.58,3.58,0,0,1,1.4-.69l.14.19c.38-.1.12-.39.57-.48-.47.31.19.2-.2.43.17,0,.11.23.49,0,.2-.47.5,0,.69-.46.25,0-.14.29.28.11.39-.41.32-.51.25-.73-.46.18-.36.54-.74.68l.54-.74a.6.6,0,0,0-.32.12,1.1,1.1,0,0,0,.3-.35,1.28,1.28,0,0,1,.11-.2c-.4.23-.75.41-.86.36v-.14a.6.6,0,0,0-.45.32c-.35.2-.64.54-.78.45l.09-.17A8.64,8.64,0,0,1,72.86,32.34Zm-10.22,3a7.93,7.93,0,0,0-.9,1.15,10.69,10.69,0,0,0-.94,1.79v-.06q-.15.23-.24.39a.71.71,0,0,0-.08.34V39l.16-.1.31-.21c.42-.28.77-.5,1-.46a19.72,19.72,0,0,0-1.54,1.29L61,39.1c-.44.46.21,0,.55-.14l-.64.61a1.62,1.62,0,0,0-.75.31c.09-.06,0-.11-.15-.12h-.13s-.13,0-.08,0,0-.21,0-.24a1.34,1.34,0,0,0-.26.57c.14,0,.21,0-.27.4.62-.43.4-.13.94-.46-.61.43-.45.49-1,.89l.88-.49c0,.09-1.36.8-1,.88.47-.33,1.23-.56,1.46-.89l0,.08c.58-.23.56-.57,1.19-.75.09-.15,0-.19-.26,0a7.08,7.08,0,0,1-.93.68c0-.16.54-.24.5-.51s-1.3.75-.61.1l.5-.2c.25-.33.62-.5.77-.75.38-.26.48-.06.95-.47.23-.26.2-.5.61-.58.18.23,1.46-.45,1.9-.71l.4-.33c0-.12-.72.36-.46.06l.57-.32,0,.1a2.2,2.2,0,0,0,.54-.38c-.15.23-.57.37-.49.56.28-.09.33,0,.59-.2,0,0-.1.09-.09.11.61-.2.51-.5.63-.63.43-.51-.61,0-.56-.23l1.35-.79c-.1.12-.19.24-.12.29.38-.08.07.15.54-.1-.13-.24.54-.46.82-.78.2,0,.24,0-.1.21.1.15.54-.15.71-.22s.23-.19.32-.28c-.17,0-.16-.15.11-.37v0c-.51.2-1.35.4-1.58.72l0-.13c-.62.14-1.11.92-1.5.73,0-.14-.13,0-.19-.16l-.3.32,0-.12-.58.33v-.05c-.26.33-.53.62-.75.86a.38.38,0,0,1-.14.25.87.87,0,0,1-.29.19h0c-.17,0-.24-.05-.42,0l.64-.33c.1-.21.08-.36-.15-.37.11-.06.19-.22.07-.18s-.39.29-.31.38a4.1,4.1,0,0,1-.91.32,3.49,3.49,0,0,0-1.24.66c.4-.29.34-.31.29-.33s-.11,0,.21-.2c-.07-.22-.65.57-1.05.72.09-.13.22-.09.56-.44l-.19.08-.1.06s-.11.07-.08,0a.85.85,0,0,0,0-.25A2,2,0,0,1,62.3,36l.25-.26Zm.29-1.54.1-.53,0,.06c0-.17,0-.36,0-.55-.14.34-.41.65-.36.09.06,0,.18-.11.18.08.19-.36.45-1.05.16-.93.07.72-.35.1-.31.68-.09-.3.07-.64,0-.91.07.31.32,0,.48-.37,0-.19.12-.67.11-1-.16.07-.2-.21-.33.27a1.69,1.69,0,0,1,.15-.76c0,.13,0,.35,0,.34a2,2,0,0,0,.29-.52l0-.31a.17.17,0,0,1-.06.06c0-.12,0-.24-.08-.36,0,.47-.1.19-.19.17.18.05.07-.29.08-.45L63,29.2c-.07-.18.22-.55,0-.5a9.89,9.89,0,0,0-.26,1.62L63,30.1c0,.74-.32.39-.47,1.19a1.39,1.39,0,0,1,0,.34l-.08.45c-.06.33-.09.61,0,.63,0-.14-.39.62-.4.95.15.33-.12,1.32.13.93.08-.26,0-.58.3-.86l-.1.49.27-.38C62.53,34,62.69,34,62.93,33.81Zm3.09-11v0Z"/><path class="cls-1" d="M84.13,25.41c.08-.14.36-.32.24-.4C84.45,25.14,83.89,25.36,84.13,25.41Z"/><path class="cls-1" d="M84.53,25.31s0-.09.08-.18l-.32.27Z"/><path class="cls-1" d="M85.4,26a1.21,1.21,0,0,1,.48-.54c.29.26-.4.41-.36.8.53-.32.53-.71.92-1C86.16,25.24,85.27,25.74,85.4,26Z"/><polygon class="cls-1" points="85.41 26.58 85.65 26.31 85.61 26.31 85.37 26.58 85.41 26.58"/><path class="cls-1" d="M77.72,27.57c-.08-.09-.21.12-.29.2A.61.61,0,0,0,77.72,27.57Z"/><path class="cls-1" d="M76,16.13c.67.53,1.35,1.05,2,1.59C77.42,17.25,76.89,16.82,76,16.13Z"/><path class="cls-1" d="M70.63,32.34c.57-.41.76-.74,1.35-1.12-.9.21-.93.91-1.71,1Z"/><path class="cls-1" d="M70.48,31.35c.18.16-.37.49-.22.59.39-.26.11-.29.49-.47Z"/><polygon class="cls-1" points="74.7 33.33 74.56 33.54 74.69 33.42 74.7 33.33"/><polygon class="cls-1" points="67.78 32.95 67.83 32.86 67.49 32.95 67.78 32.95"/><path class="cls-1" d="M67.87,32.78l-.05.08Z"/><polygon class="cls-1" points="74.65 33.9 74.95 33.8 75.04 33.63 74.65 33.9"/><path class="cls-1" d="M71.73,34.07l.22-.19S71.54,34,71.73,34.07Z"/><path class="cls-1" d="M66,33.71l-.07.13,0,0,.07-.14Z"/><path class="cls-1" d="M70,35.64c.24.08-.48.3-.07.26S70.1,35.7,70,35.64Z"/><path class="cls-1" d="M65.87,36.39a.51.51,0,0,0-.13.09Z"/><path class="cls-1" d="M65.87,36.39c.14-.07.29-.07.38-.17A.58.58,0,0,0,65.87,36.39Z"/><path class="cls-1" d="M64.24,37.23l.13,0c-.17.18-.1.13,0,0a.35.35,0,0,0,.19-.2l.1-.12-.13.13C64.37,37.07,64.23,37.14,64.24,37.23Z"/><path class="cls-1" d="M65.34,33.24a2.79,2.79,0,0,1-.35.37c-.1.15.24-.2.31-.25S65.38,33.25,65.34,33.24Z"/><path class="cls-1" d="M65.3,33.36h0Z"/><polygon class="cls-1" points="66.32 37.85 65.89 38.29 66.06 38.18 66.32 37.85"/><path class="cls-1" d="M65.45,33.1l-.07.08C65.55,33,65.46,33.09,65.45,33.1Z"/><path class="cls-1" d="M61.52,37.27a4,4,0,0,0-.3.58C61.33,37.63,61.75,37.11,61.52,37.27Z"/><path class="cls-1" d="M64.9,33.2a.55.55,0,0,1-.24.15S65,33.29,64.9,33.2Z"/><path class="cls-1" d="M61.91,36.39l-.08.13a1.27,1.27,0,0,1,0,.2A3.18,3.18,0,0,0,61.91,36.39Z"/><path class="cls-1" d="M57.62,41.62c0,.16.32-.32.58-.7s.49-.68.4-.32c.9-1.63-.48.57,0-.47A9.24,9.24,0,0,1,57.62,41.62Z"/><path class="cls-1" d="M58.61,40.13l.15-.31Z"/><path class="cls-1" d="M62.72,31.66c0,.06,0,.1,0,.14A.66.66,0,0,0,62.72,31.66Z"/><path class="cls-1" d="M59.88,36.84c0,.27-.06.51-.07.73a8.54,8.54,0,0,1,.35-1.22c.11-.42.18-.77,0-.65a5.24,5.24,0,0,0-.31.85,1.4,1.4,0,0,0-.12.55Z"/><path class="cls-1" d="M66.21,28.8l.05.3.07-.35C66.29,28.85,66.15,28.64,66.21,28.8Z"/><path class="cls-1" d="M66.35,28.69l0,.06S66.34,28.72,66.35,28.69Z"/><path class="cls-1" d="M62.52,32.92a2.87,2.87,0,0,0-.13.59C62.47,33.41,62.65,32.89,62.52,32.92Z"/><polygon class="cls-1" points="66.13 26.78 66.12 27.25 66.15 26.74 66.13 26.78"/><polygon class="cls-1" points="66.68 24.67 66.72 24.59 66.67 24.2 66.62 24.28 66.68 24.67"/><path class="cls-1" d="M62.14,26.9c0,.28.12.54.17.47s0-.37,0-.56c-.19.12,0,.15-.09.47Z"/><path class="cls-1" d="M66.36,10c.12.07,0,.15-.06.16s-.09-.12-.16-.08a.92.92,0,0,0,.28.14s0,0,0,.07l0,.07s0,0-.07,0a.18.18,0,0,1-.06-.08.16.16,0,0,1,0-.07l0,0a1.42,1.42,0,0,1-.22-.28.47.47,0,0,0,.07.28l0,0a.31.31,0,0,0,0,.08l0,.19c0,.13,0,.27,0,.45a1.32,1.32,0,0,1,.14-.46c.2,0,.13.64.16,1.12.08-.3.15-.13.24.09a.19.19,0,0,0,0,.09l0,.07V11.8s0,0,.08-.05a5,5,0,0,1,.09-1c-.16.13-.18-.09-.18-.39v-.11s0-.08,0-.07v0s0,0,0,0l0,0v0l.14.07c-.06,0,0-.06-.14-.11a.66.66,0,0,1,0-.14l.06.05-.06-.06a.34.34,0,0,1,0-.14.08.08,0,0,1,.11,0l.27.17A1.23,1.23,0,0,0,67,9.73c.12-.2-.07-.1,0-.33,0-.07.12,0,.14.09,0-.1,0-.24,0-.38S67,9,67,9.11s-.08.2-.16.11,0-.29-.09-.35l0,0c-.08,0-.13-.09-.18-.18s-.09-.15-.07.1l-.09-.29c0,.08-.08.12-.14.18a.43.43,0,0,0-.13.21l0-.06c0,.31,0,.36,0,.4s0,.08,0,.3a2,2,0,0,1-.21-.38c-.1.07.14.31.11.38a.51.51,0,0,1-.2-.24,3.94,3.94,0,0,0,.33.68C66.29,10.08,66.28,10,66.36,10Z"/><path class="cls-1" d="M66.12,11a1.22,1.22,0,0,0,0,.27Z"/><path class="cls-1" d="M67.19,10l-.1-.06s0,0,0,0Z"/><path class="cls-1" d="M66.56,13.05c.08-.26.13.18.2.22l0-.91c-.07,0-.15-.08-.21-.06Z"/><path class="cls-1" d="M66.86,12.09a.48.48,0,0,1-.14-.23l0,.5C66.79,12.36,66.83,12.3,66.86,12.09Z"/><polygon class="cls-1" points="63.2 12.3 63.19 12.14 63.13 11.9 63.2 12.3"/><path class="cls-1" d="M63.44,9.63a1.68,1.68,0,0,0,0,.82c0-.2,0-.32,0-.38A2.74,2.74,0,0,0,63.44,9.63Z"/><polygon class="cls-1" points="62.34 10.31 62.27 9.63 62.25 9.69 62.34 10.31"/><path class="cls-1" d="M69.87,11l.15.1Z"/><path class="cls-1" d="M67.34,9.42a.25.25,0,0,1,0,.16l-.09,0c-.08,0-.15,0-.17.19l.11,0,0,.06h0l.13.08.24.16c0-.18-.1-.24,0-.34.62.5.13.28.51.76l.73.49h-.08c.06,0,.09,0,.13,0,.81.56,1.61,1.12,2.41,1.7.48.23-.11-.39.31-.31-.5-.39-1.17-1.06-1.35-.87,0,0,.1-.05,0-.16l-.4,0,.24.26a3,3,0,0,1-1.43-1c.58.33.44-.09,1.12.58,0-.09-.08-.29.11-.2-.46-.28-.87-.6-1.3-.9-.21-.14-.43-.29-.66-.42S67.37,9.37,67.34,9.42Z"/><path class="cls-1" d="M76,15.85l0,0S76,15.87,76,15.85Z"/><path class="cls-1" d="M75.69,15.59l-.56-.12.65.51.15-.11c-.08,0-.36-.12-.41-.25Z"/><path class="cls-1" d="M74.57,15.2c.37.21.47,0,.34-.21.36.17,0,.32.37.31.08-.14-.35-.37-.45-.42Z"/><polygon class="cls-1" points="72.15 13.14 72.29 13.14 72.07 12.94 72.15 13.14"/><path class="cls-1" d="M72.29,13.14l.22.2a.46.46,0,0,0,0-.2Z"/><path class="cls-1" d="M73.09,13.87c.09.09.19.19.32.3Z"/><path class="cls-1" d="M72.85,13.62v0l.25.22Z"/><path class="cls-1" d="M72.51,13.34c0,.16-.08.33.28.55l0-.24Z"/><path class="cls-1" d="M62.78,5.94a4.37,4.37,0,0,1,.09-.5l0,0a4,4,0,0,0-.09.5Z"/><path class="cls-1" d="M64.35,4.08l.21-.15A.44.44,0,0,0,64.35,4.08Z"/><path class="cls-1" d="M65.83,3.15c.58.38-.73-.06.3.4.1.2-.33.22-.79,0,0-.13.43.08.11-.18-.29,0-.38,0-.24.18-.39.1-.38.25-.65.42A1,1,0,0,1,65,3.88l.28.05a1.89,1.89,0,0,1,.33.15A3.9,3.9,0,0,0,67,4.49c.42-.1.2-.58.2-1C67.1,3.39,65.83,2.91,65.83,3.15Z"/><path class="cls-1" d="M64.86,2.51a.79.79,0,0,0-.42.09C64.52,2.71,64.68,2.53,64.86,2.51Z"/><path class="cls-1" d="M69.43,7.89s.36.12.34,0l-.45-.24A.28.28,0,0,1,69.43,7.89Z"/><path class="cls-1" d="M69.13,7.54l.19.11A.63.63,0,0,0,69.13,7.54Z"/><path class="cls-1" d="M69.43,7.93v0S69.41,7.9,69.43,7.93Z"/><path class="cls-1" d="M74,14.71c-.06.07.14.16.25.21A1,1,0,0,0,74,14.71Z"/><path class="cls-1" d="M80.64,19.94l.1.19A.5.5,0,0,0,80.64,19.94Z"/><path class="cls-1" d="M84.46,20h0Z"/><path class="cls-1" d="M84.52,20c.15,0,.39.43.57.45h0l.25.15C85.1,20.45,84.71,20,84.52,20Z"/></g></g></svg>