<svg xmlns="http://www.w3.org/2000/svg" viewBox="0 0 26.01 26.01"><defs><style>.cls-1{fill:#7c7c7d;}.cls-2{fill:#d9c1bf;}</style></defs><title>instagramicon0</title><g id="Layer_2" data-name="Layer 2"><g id="Layer_1-2" data-name="Layer 1"><path class="cls-1" d="M19.31,0H6.71A6.72,6.72,0,0,0,0,6.71v12.6A6.71,6.71,0,0,0,6.71,26h12.6a6.7,6.7,0,0,0,6.7-6.7V6.71A6.71,6.71,0,0,0,19.31,0Zm4.43,19.33a4.44,4.44,0,0,1-4.43,4.43H6.71a4.44,4.44,0,0,1-4.43-4.43V6.73A4.44,4.44,0,0,1,6.71,2.3h12.6a4.44,4.44,0,0,1,4.43,4.43Z"/><path class="cls-2" d="M13,6.36A6.65,6.65,0,1,0,19.65,13,6.67,6.67,0,0,0,13,6.36Zm0,11A4.37,4.37,0,1,1,17.38,13,4.37,4.37,0,0,1,13,17.38Z"/><circle class="cls-2" cx="20.18" cy="6.18" r="1.3"/></g></g></svg>