<svg xmlns="http://www.w3.org/2000/svg" viewBox="0 0 31.2 25.68"><defs><style>.cls-1{fill:#7c7c7d;}.cls-2{fill:#d9c1bf;}</style></defs><title>twittericon0</title><g id="Layer_2" data-name="Layer 2"><g id="Layer_1-2" data-name="Layer 1"><path class="cls-1" d="M30.32.48S27.8,2,26.31,2c0,0-1.13-1.88-4.39-2A6.66,6.66,0,0,0,16,3.32a7.2,7.2,0,0,0-.58,4.59A17.81,17.81,0,0,1,2.13,1.25s-2.82,5,2,8.43a6.61,6.61,0,0,1-3-.69,6.67,6.67,0,0,0,5.08,6.3,5,5,0,0,1-2.79.14s.91,3.92,5.81,4.42c0,0-2.91,3.15-9.29,2.65a17.29,17.29,0,0,0,19.43.31c9.31-5.89,8.62-16.47,8.62-16.47s2.46-1.58,3.15-3.27A19.54,19.54,0,0,1,27.64,4S30.37,1.8,30.32.48Z"/><path class="cls-2" d="M9.29,19.85s-4.89-.1-5.84-4.52a3.84,3.84,0,0,0,2.68-.08,6.48,6.48,0,0,1-5-6.32A5.91,5.91,0,0,0,4,9.59S-.69,6.74,2.13,1.17A17.52,17.52,0,0,0,15.42,7.91S19.55,16.07,9.29,19.85Z"/></g></g></svg>